<?xml version="1.0" encoding="UTF-8" standalone="no"?>
<!DOCTYPE svg PUBLIC "-//W3C//DTD SVG 1.1//EN"
 "http://www.w3.org/Graphics/SVG/1.1/DTD/svg11.dtd">
<!-- Generated by graphviz version 2.47.3 (20210619.1520)
 -->
<!-- Title: dependencies Pages: 1 -->
<svg width="765pt" height="174pt"
 viewBox="0.00 0.00 765.00 173.80" xmlns="http://www.w3.org/2000/svg" xmlns:xlink="http://www.w3.org/1999/xlink">
<g id="graph0" class="graph" transform="scale(1 1) rotate(0) translate(4 169.8)">
<title>dependencies</title>
<polygon fill="white" stroke="transparent" points="-4,4 -4,-169.8 761,-169.8 761,4 -4,4"/>
<text text-anchor="middle" x="378.5" y="-8.2" font-family="sans-serif" font-size="14.00">dependencies</text>
<g id="clust1" class="cluster">
<title>cluster_AppProviderModule</title>
<polygon fill="none" stroke="black" stroke-dasharray="1,5" points="8,-32.8 8,-157.8 749,-157.8 749,-32.8 8,-32.8"/>
</g>
<g id="clust2" class="cluster">
<title>cluster_AppProviderModule_declarations</title>
<polygon fill="none" stroke="black" points="216,-40.8 216,-92.8 741,-92.8 741,-40.8 216,-40.8"/>
</g>
<g id="clust6" class="cluster">
<title>cluster_AppProviderModule_imports</title>
<polygon fill="none" stroke="black" points="16,-40.8 16,-92.8 208,-92.8 208,-40.8 16,-40.8"/>
</g>
<!-- MainProviderComponent -->
<g id="node1" class="node">
<title>MainProviderComponent</title>
<polygon fill="#ffffb3" stroke="black" points="732.59,-84.8 573.41,-84.8 573.41,-48.8 732.59,-48.8 732.59,-84.8"/>
<text text-anchor="middle" x="653" y="-62.6" font-family="Times,serif" font-size="14.00">MainProviderComponent</text>
</g>
<!-- AppProviderModule -->
<g id="node4" class="node">
<title>AppProviderModule</title>
<polygon fill="#8dd3c7" stroke="black" points="468.87,-149.8 465.87,-153.8 444.87,-153.8 441.87,-149.8 337.13,-149.8 337.13,-113.8 468.87,-113.8 468.87,-149.8"/>
<text text-anchor="middle" x="403" y="-127.6" font-family="Times,serif" font-size="14.00">AppProviderModule</text>
</g>
<!-- MainProviderComponent&#45;&gt;AppProviderModule -->
<g id="edge1" class="edge">
<title>MainProviderComponent&#45;&gt;AppProviderModule</title>
<path fill="none" stroke="black" d="M653,-84.91C653,-104.14 653,-131.8 653,-131.8 653,-131.8 479.01,-131.8 479.01,-131.8"/>
<polygon fill="black" stroke="black" points="479.01,-128.3 469.01,-131.8 479.01,-135.3 479.01,-128.3"/>
</g>
<!-- ProviderComponent -->
<g id="node2" class="node">
<title>ProviderComponent</title>
<polygon fill="#ffffb3" stroke="black" points="555.54,-84.8 426.46,-84.8 426.46,-48.8 555.54,-48.8 555.54,-84.8"/>
<text text-anchor="middle" x="491" y="-62.6" font-family="Times,serif" font-size="14.00">ProviderComponent</text>
</g>
<!-- ProviderComponent&#45;&gt;AppProviderModule -->
<g id="edge2" class="edge">
<title>ProviderComponent&#45;&gt;AppProviderModule</title>
<path fill="none" stroke="black" d="M447.58,-84.91C447.58,-84.91 447.58,-103.79 447.58,-103.79"/>
<polygon fill="black" stroke="black" points="444.08,-103.79 447.58,-113.79 451.08,-103.79 444.08,-103.79"/>
</g>
<!-- ShowOneProviderComponent -->
<g id="node3" class="node">
<title>ShowOneProviderComponent</title>
<polygon fill="#ffffb3" stroke="black" points="408.25,-84.8 223.75,-84.8 223.75,-48.8 408.25,-48.8 408.25,-84.8"/>
<text text-anchor="middle" x="316" y="-62.6" font-family="Times,serif" font-size="14.00">ShowOneProviderComponent</text>
</g>
<!-- ShowOneProviderComponent&#45;&gt;AppProviderModule -->
<g id="edge3" class="edge">
<title>ShowOneProviderComponent&#45;&gt;AppProviderModule</title>
<path fill="none" stroke="black" d="M372.72,-84.91C372.72,-84.91 372.72,-103.79 372.72,-103.79"/>
<polygon fill="black" stroke="black" points="369.22,-103.79 372.72,-113.79 376.22,-103.79 369.22,-103.79"/>
</g>
<!-- AppProviderRoutingModule -->
<g id="node5" class="node">
<title>AppProviderRoutingModule</title>
<polygon fill="#8dd3c7" stroke="black" points="200.48,-84.8 197.48,-88.8 176.48,-88.8 173.48,-84.8 23.52,-84.8 23.52,-48.8 200.48,-48.8 200.48,-84.8"/>
<text text-anchor="middle" x="112" y="-62.6" font-family="Times,serif" font-size="14.00">AppProviderRoutingModule</text>
</g>
<!-- AppProviderRoutingModule&#45;&gt;AppProviderModule -->
<g id="edge4" class="edge">
<title>AppProviderRoutingModule&#45;&gt;AppProviderModule</title>
<path fill="none" stroke="black" d="M112,-84.91C112,-104.14 112,-131.8 112,-131.8 112,-131.8 326.97,-131.8 326.97,-131.8"/>
<polygon fill="black" stroke="black" points="326.97,-135.3 336.97,-131.8 326.97,-128.3 326.97,-135.3"/>
</g>
</g>
</svg>
