<?xml version="1.0" encoding="UTF-8" standalone="no"?>
<!DOCTYPE svg PUBLIC "-//W3C//DTD SVG 1.1//EN"
 "http://www.w3.org/Graphics/SVG/1.1/DTD/svg11.dtd">
<!-- Generated by graphviz version 2.47.3 (20210619.1520)
 -->
<!-- Title: dependencies Pages: 1 -->
<svg width="738pt" height="174pt"
 viewBox="0.00 0.00 738.00 173.80" xmlns="http://www.w3.org/2000/svg" xmlns:xlink="http://www.w3.org/1999/xlink">
<g id="graph0" class="graph" transform="scale(1 1) rotate(0) translate(4 169.8)">
<title>dependencies</title>
<polygon fill="white" stroke="transparent" points="-4,4 -4,-169.8 734,-169.8 734,4 -4,4"/>
<text text-anchor="middle" x="365" y="-8.2" font-family="sans-serif" font-size="14.00">dependencies</text>
<g id="clust1" class="cluster">
<title>cluster_AppProduitModule</title>
<polygon fill="none" stroke="black" stroke-dasharray="1,5" points="8,-32.8 8,-157.8 722,-157.8 722,-32.8 8,-32.8"/>
</g>
<g id="clust2" class="cluster">
<title>cluster_AppProduitModule_declarations</title>
<polygon fill="none" stroke="black" points="210,-40.8 210,-92.8 714,-92.8 714,-40.8 210,-40.8"/>
</g>
<g id="clust6" class="cluster">
<title>cluster_AppProduitModule_imports</title>
<polygon fill="none" stroke="black" points="16,-40.8 16,-92.8 202,-92.8 202,-40.8 16,-40.8"/>
</g>
<!-- MainProduitComponent -->
<g id="node1" class="node">
<title>MainProduitComponent</title>
<polygon fill="#ffffb3" stroke="black" points="706.11,-84.8 553.89,-84.8 553.89,-48.8 706.11,-48.8 706.11,-84.8"/>
<text text-anchor="middle" x="630" y="-62.6" font-family="Times,serif" font-size="14.00">MainProduitComponent</text>
</g>
<!-- AppProduitModule -->
<g id="node4" class="node">
<title>AppProduitModule</title>
<polygon fill="#8dd3c7" stroke="black" points="453.38,-149.8 450.38,-153.8 429.38,-153.8 426.38,-149.8 328.62,-149.8 328.62,-113.8 453.38,-113.8 453.38,-149.8"/>
<text text-anchor="middle" x="391" y="-127.6" font-family="Times,serif" font-size="14.00">AppProduitModule</text>
</g>
<!-- MainProduitComponent&#45;&gt;AppProduitModule -->
<g id="edge1" class="edge">
<title>MainProduitComponent&#45;&gt;AppProduitModule</title>
<path fill="none" stroke="black" d="M630,-84.91C630,-104.14 630,-131.8 630,-131.8 630,-131.8 463.48,-131.8 463.48,-131.8"/>
<polygon fill="black" stroke="black" points="463.48,-128.3 453.48,-131.8 463.48,-135.3 463.48,-128.3"/>
</g>
<!-- ProduitComponent -->
<g id="node2" class="node">
<title>ProduitComponent</title>
<polygon fill="#ffffb3" stroke="black" points="536.06,-84.8 413.94,-84.8 413.94,-48.8 536.06,-48.8 536.06,-84.8"/>
<text text-anchor="middle" x="475" y="-62.6" font-family="Times,serif" font-size="14.00">ProduitComponent</text>
</g>
<!-- ProduitComponent&#45;&gt;AppProduitModule -->
<g id="edge2" class="edge">
<title>ProduitComponent&#45;&gt;AppProduitModule</title>
<path fill="none" stroke="black" d="M433.58,-84.91C433.58,-84.91 433.58,-103.79 433.58,-103.79"/>
<polygon fill="black" stroke="black" points="430.08,-103.79 433.58,-113.79 437.08,-103.79 430.08,-103.79"/>
</g>
<!-- ShowOneProduitComponent -->
<g id="node3" class="node">
<title>ShowOneProduitComponent</title>
<polygon fill="#ffffb3" stroke="black" points="395.77,-84.8 218.23,-84.8 218.23,-48.8 395.77,-48.8 395.77,-84.8"/>
<text text-anchor="middle" x="307" y="-62.6" font-family="Times,serif" font-size="14.00">ShowOneProduitComponent</text>
</g>
<!-- ShowOneProduitComponent&#45;&gt;AppProduitModule -->
<g id="edge3" class="edge">
<title>ShowOneProduitComponent&#45;&gt;AppProduitModule</title>
<path fill="none" stroke="black" d="M362.22,-84.91C362.22,-84.91 362.22,-103.79 362.22,-103.79"/>
<polygon fill="black" stroke="black" points="358.72,-103.79 362.22,-113.79 365.72,-103.79 358.72,-103.79"/>
</g>
<!-- AppProduitRoutingModule -->
<g id="node5" class="node">
<title>AppProduitRoutingModule</title>
<polygon fill="#8dd3c7" stroke="black" points="194,-84.8 191,-88.8 170,-88.8 167,-84.8 24,-84.8 24,-48.8 194,-48.8 194,-84.8"/>
<text text-anchor="middle" x="109" y="-62.6" font-family="Times,serif" font-size="14.00">AppProduitRoutingModule</text>
</g>
<!-- AppProduitRoutingModule&#45;&gt;AppProduitModule -->
<g id="edge4" class="edge">
<title>AppProduitRoutingModule&#45;&gt;AppProduitModule</title>
<path fill="none" stroke="black" d="M109,-84.91C109,-104.14 109,-131.8 109,-131.8 109,-131.8 318.42,-131.8 318.42,-131.8"/>
<polygon fill="black" stroke="black" points="318.42,-135.3 328.42,-131.8 318.42,-128.3 318.42,-135.3"/>
</g>
</g>
</svg>
