<?xml version="1.0" encoding="UTF-8" standalone="no"?>
<!DOCTYPE svg PUBLIC "-//W3C//DTD SVG 1.1//EN"
 "http://www.w3.org/Graphics/SVG/1.1/DTD/svg11.dtd">
<!-- Generated by graphviz version 2.47.3 (20210619.1520)
 -->
<!-- Title: dependencies Pages: 1 -->
<svg width="816pt" height="174pt"
 viewBox="0.00 0.00 816.00 173.80" xmlns="http://www.w3.org/2000/svg" xmlns:xlink="http://www.w3.org/1999/xlink">
<g id="graph0" class="graph" transform="scale(1 1) rotate(0) translate(4 169.8)">
<title>dependencies</title>
<polygon fill="white" stroke="transparent" points="-4,4 -4,-169.8 812,-169.8 812,4 -4,4"/>
<text text-anchor="middle" x="404" y="-8.2" font-family="sans-serif" font-size="14.00">dependencies</text>
<g id="clust1" class="cluster">
<title>cluster_AppLivraisonModule</title>
<polygon fill="none" stroke="black" stroke-dasharray="1,5" points="8,-32.8 8,-157.8 800,-157.8 800,-32.8 8,-32.8"/>
</g>
<g id="clust6" class="cluster">
<title>cluster_AppLivraisonModule_imports</title>
<polygon fill="none" stroke="black" points="594,-40.8 594,-92.8 792,-92.8 792,-40.8 594,-40.8"/>
</g>
<g id="clust2" class="cluster">
<title>cluster_AppLivraisonModule_declarations</title>
<polygon fill="none" stroke="black" points="16,-40.8 16,-92.8 586,-92.8 586,-40.8 16,-40.8"/>
</g>
<!-- FormLivraisonCheckoutComponent -->
<g id="node1" class="node">
<title>FormLivraisonCheckoutComponent</title>
<polygon fill="#ffffb3" stroke="black" points="578.48,-84.8 359.52,-84.8 359.52,-48.8 578.48,-48.8 578.48,-84.8"/>
<text text-anchor="middle" x="469" y="-62.6" font-family="Times,serif" font-size="14.00">FormLivraisonCheckoutComponent</text>
</g>
<!-- AppLivraisonModule -->
<g id="node4" class="node">
<title>AppLivraisonModule</title>
<polygon fill="#8dd3c7" stroke="black" points="439.81,-149.8 436.81,-153.8 415.81,-153.8 412.81,-149.8 302.19,-149.8 302.19,-113.8 439.81,-113.8 439.81,-149.8"/>
<text text-anchor="middle" x="371" y="-127.6" font-family="Times,serif" font-size="14.00">AppLivraisonModule</text>
</g>
<!-- FormLivraisonCheckoutComponent&#45;&gt;AppLivraisonModule -->
<g id="edge1" class="edge">
<title>FormLivraisonCheckoutComponent&#45;&gt;AppLivraisonModule</title>
<path fill="none" stroke="black" d="M399.58,-84.91C399.58,-84.91 399.58,-103.79 399.58,-103.79"/>
<polygon fill="black" stroke="black" points="396.08,-103.79 399.58,-113.79 403.08,-103.79 396.08,-103.79"/>
</g>
<!-- LivraisonComponent -->
<g id="node2" class="node">
<title>LivraisonComponent</title>
<polygon fill="#ffffb3" stroke="black" points="341.49,-84.8 206.51,-84.8 206.51,-48.8 341.49,-48.8 341.49,-84.8"/>
<text text-anchor="middle" x="274" y="-62.6" font-family="Times,serif" font-size="14.00">LivraisonComponent</text>
</g>
<!-- LivraisonComponent&#45;&gt;AppLivraisonModule -->
<g id="edge2" class="edge">
<title>LivraisonComponent&#45;&gt;AppLivraisonModule</title>
<path fill="none" stroke="black" d="M321.92,-84.91C321.92,-84.91 321.92,-103.79 321.92,-103.79"/>
<polygon fill="black" stroke="black" points="318.42,-103.79 321.92,-113.79 325.42,-103.79 318.42,-103.79"/>
</g>
<!-- MainLivraisonComponent -->
<g id="node3" class="node">
<title>MainLivraisonComponent</title>
<polygon fill="#ffffb3" stroke="black" points="188.04,-84.8 23.96,-84.8 23.96,-48.8 188.04,-48.8 188.04,-84.8"/>
<text text-anchor="middle" x="106" y="-62.6" font-family="Times,serif" font-size="14.00">MainLivraisonComponent</text>
</g>
<!-- MainLivraisonComponent&#45;&gt;AppLivraisonModule -->
<g id="edge3" class="edge">
<title>MainLivraisonComponent&#45;&gt;AppLivraisonModule</title>
<path fill="none" stroke="black" d="M106,-84.91C106,-104.14 106,-131.8 106,-131.8 106,-131.8 292.07,-131.8 292.07,-131.8"/>
<polygon fill="black" stroke="black" points="292.07,-135.3 302.07,-131.8 292.07,-128.3 292.07,-135.3"/>
</g>
<!-- AppLivraisonRoutingModule -->
<g id="node5" class="node">
<title>AppLivraisonRoutingModule</title>
<polygon fill="#8dd3c7" stroke="black" points="784.43,-84.8 781.43,-88.8 760.43,-88.8 757.43,-84.8 601.57,-84.8 601.57,-48.8 784.43,-48.8 784.43,-84.8"/>
<text text-anchor="middle" x="693" y="-62.6" font-family="Times,serif" font-size="14.00">AppLivraisonRoutingModule</text>
</g>
<!-- AppLivraisonRoutingModule&#45;&gt;AppLivraisonModule -->
<g id="edge4" class="edge">
<title>AppLivraisonRoutingModule&#45;&gt;AppLivraisonModule</title>
<path fill="none" stroke="black" d="M693,-84.91C693,-104.14 693,-131.8 693,-131.8 693,-131.8 449.68,-131.8 449.68,-131.8"/>
<polygon fill="black" stroke="black" points="449.68,-128.3 439.68,-131.8 449.68,-135.3 449.68,-128.3"/>
</g>
</g>
</svg>
