<?xml version="1.0" encoding="UTF-8" standalone="no"?>
<!DOCTYPE svg PUBLIC "-//W3C//DTD SVG 1.1//EN"
 "http://www.w3.org/Graphics/SVG/1.1/DTD/svg11.dtd">
<!-- Generated by graphviz version 2.47.3 (20210619.1520)
 -->
<!-- Title: dependencies Pages: 1 -->
<svg width="1779pt" height="247pt"
 viewBox="0.00 0.00 1779.00 246.80" xmlns="http://www.w3.org/2000/svg" xmlns:xlink="http://www.w3.org/1999/xlink">
<g id="graph0" class="graph" transform="scale(1 1) rotate(0) translate(4 242.8)">
<title>dependencies</title>
<polygon fill="white" stroke="transparent" points="-4,4 -4,-242.8 1775,-242.8 1775,4 -4,4"/>
<text text-anchor="middle" x="885.5" y="-8.2" font-family="sans-serif" font-size="14.00">dependencies</text>
<g id="clust1" class="cluster">
<title>cluster_AppModule</title>
<polygon fill="none" stroke="black" stroke-dasharray="1,5" points="8,-32.8 8,-230.8 1763,-230.8 1763,-32.8 8,-32.8"/>
</g>
<g id="clust9" class="cluster">
<title>cluster_AppModule_bootstrap</title>
<polygon fill="none" stroke="black" points="821,-170.8 821,-222.8 945,-222.8 945,-170.8 821,-170.8"/>
</g>
<g id="clust7" class="cluster">
<title>cluster_AppModule_imports</title>
<polygon fill="none" stroke="black" points="562,-40.8 562,-92.8 1755,-92.8 1755,-40.8 562,-40.8"/>
</g>
<g id="clust2" class="cluster">
<title>cluster_AppModule_declarations</title>
<polygon fill="none" stroke="black" points="16,-40.8 16,-92.8 554,-92.8 554,-40.8 16,-40.8"/>
</g>
<!-- AppComponent -->
<g id="node1" class="node">
<title>AppComponent</title>
<polygon fill="#ffffb3" stroke="black" points="545.94,-84.8 440.06,-84.8 440.06,-48.8 545.94,-48.8 545.94,-84.8"/>
<text text-anchor="middle" x="493" y="-62.6" font-family="Times,serif" font-size="14.00">AppComponent</text>
</g>
<!-- AppModule -->
<g id="node5" class="node">
<title>AppModule</title>
<polygon fill="#8dd3c7" stroke="black" points="924.66,-149.8 921.66,-153.8 900.66,-153.8 897.66,-149.8 841.34,-149.8 841.34,-113.8 924.66,-113.8 924.66,-149.8"/>
<text text-anchor="middle" x="883" y="-127.6" font-family="Times,serif" font-size="14.00">AppModule</text>
</g>
<!-- AppComponent&#45;&gt;AppModule -->
<g id="edge1" class="edge">
<title>AppComponent&#45;&gt;AppModule</title>
<path fill="none" stroke="black" d="M493,-84.82C493,-102.17 493,-125.8 493,-125.8 493,-125.8 831.26,-125.8 831.26,-125.8"/>
<polygon fill="black" stroke="black" points="831.26,-129.3 841.26,-125.8 831.26,-122.3 831.26,-129.3"/>
</g>
<!-- BannerComponent -->
<g id="node2" class="node">
<title>BannerComponent</title>
<polygon fill="#ffffb3" stroke="black" points="421.76,-84.8 300.24,-84.8 300.24,-48.8 421.76,-48.8 421.76,-84.8"/>
<text text-anchor="middle" x="361" y="-62.6" font-family="Times,serif" font-size="14.00">BannerComponent</text>
</g>
<!-- BannerComponent&#45;&gt;AppModule -->
<g id="edge2" class="edge">
<title>BannerComponent&#45;&gt;AppModule</title>
<path fill="none" stroke="black" d="M361,-84.91C361,-104.14 361,-131.8 361,-131.8 361,-131.8 831.16,-131.8 831.16,-131.8"/>
<polygon fill="black" stroke="black" points="831.16,-135.3 841.16,-131.8 831.16,-128.3 831.16,-135.3"/>
</g>
<!-- FooterComponent -->
<g id="node3" class="node">
<title>FooterComponent</title>
<polygon fill="#ffffb3" stroke="black" points="281.88,-84.8 164.12,-84.8 164.12,-48.8 281.88,-48.8 281.88,-84.8"/>
<text text-anchor="middle" x="223" y="-62.6" font-family="Times,serif" font-size="14.00">FooterComponent</text>
</g>
<!-- FooterComponent&#45;&gt;AppModule -->
<g id="edge3" class="edge">
<title>FooterComponent&#45;&gt;AppModule</title>
<path fill="none" stroke="black" d="M223,-85.08C223,-106.12 223,-137.8 223,-137.8 223,-137.8 831.21,-137.8 831.21,-137.8"/>
<polygon fill="black" stroke="black" points="831.21,-141.3 841.21,-137.8 831.21,-134.3 831.21,-141.3"/>
</g>
<!-- HeaderComponent -->
<g id="node4" class="node">
<title>HeaderComponent</title>
<polygon fill="#ffffb3" stroke="black" points="145.74,-84.8 24.26,-84.8 24.26,-48.8 145.74,-48.8 145.74,-84.8"/>
<text text-anchor="middle" x="85" y="-62.6" font-family="Times,serif" font-size="14.00">HeaderComponent</text>
</g>
<!-- HeaderComponent&#45;&gt;AppModule -->
<g id="edge4" class="edge">
<title>HeaderComponent&#45;&gt;AppModule</title>
<path fill="none" stroke="black" d="M85,-85.05C85,-107.82 85,-143.8 85,-143.8 85,-143.8 831.22,-143.8 831.22,-143.8"/>
<polygon fill="black" stroke="black" points="831.22,-147.3 841.22,-143.8 831.22,-140.3 831.22,-147.3"/>
</g>
<!-- AppComponent  -->
<g id="node14" class="node">
<title>AppComponent </title>
<polygon fill="#80b1d3" stroke="black" points="937.44,-214.8 828.56,-214.8 828.56,-178.8 937.44,-178.8 937.44,-214.8"/>
<text text-anchor="middle" x="883" y="-192.6" font-family="Times,serif" font-size="14.00">AppComponent </text>
</g>
<!-- AppModule&#45;&gt;AppComponent  -->
<g id="edge13" class="edge">
<title>AppModule&#45;&gt;AppComponent </title>
<path fill="none" stroke="black" stroke-dasharray="1,5" d="M883,-149.91C883,-149.91 883,-168.79 883,-168.79"/>
<polygon fill="black" stroke="black" points="879.5,-168.79 883,-178.79 886.5,-168.79 879.5,-168.79"/>
</g>
<!-- AppCartModule -->
<g id="node6" class="node">
<title>AppCartModule</title>
<polygon fill="#8dd3c7" stroke="black" points="1746.76,-84.8 1743.76,-88.8 1722.76,-88.8 1719.76,-84.8 1639.24,-84.8 1639.24,-48.8 1746.76,-48.8 1746.76,-84.8"/>
<text text-anchor="middle" x="1693" y="-62.6" font-family="Times,serif" font-size="14.00">AppCartModule</text>
</g>
<!-- AppCartModule&#45;&gt;AppModule -->
<g id="edge5" class="edge">
<title>AppCartModule&#45;&gt;AppModule</title>
<path fill="none" stroke="black" d="M1693,-85.05C1693,-107.82 1693,-143.8 1693,-143.8 1693,-143.8 934.84,-143.8 934.84,-143.8"/>
<polygon fill="black" stroke="black" points="934.84,-140.3 924.84,-143.8 934.84,-147.3 934.84,-140.3"/>
</g>
<!-- AppLivraisonModule -->
<g id="node7" class="node">
<title>AppLivraisonModule</title>
<polygon fill="#8dd3c7" stroke="black" points="1620.81,-84.8 1617.81,-88.8 1596.81,-88.8 1593.81,-84.8 1483.19,-84.8 1483.19,-48.8 1620.81,-48.8 1620.81,-84.8"/>
<text text-anchor="middle" x="1552" y="-62.6" font-family="Times,serif" font-size="14.00">AppLivraisonModule</text>
</g>
<!-- AppLivraisonModule&#45;&gt;AppModule -->
<g id="edge6" class="edge">
<title>AppLivraisonModule&#45;&gt;AppModule</title>
<path fill="none" stroke="black" d="M1552,-85.08C1552,-106.12 1552,-137.8 1552,-137.8 1552,-137.8 934.85,-137.8 934.85,-137.8"/>
<polygon fill="black" stroke="black" points="934.85,-134.3 924.85,-137.8 934.85,-141.3 934.85,-134.3"/>
</g>
<!-- AppLivreurModule -->
<g id="node8" class="node">
<title>AppLivreurModule</title>
<polygon fill="#8dd3c7" stroke="black" points="1465.64,-84.8 1462.64,-88.8 1441.64,-88.8 1438.64,-84.8 1340.36,-84.8 1340.36,-48.8 1465.64,-48.8 1465.64,-84.8"/>
<text text-anchor="middle" x="1403" y="-62.6" font-family="Times,serif" font-size="14.00">AppLivreurModule</text>
</g>
<!-- AppLivreurModule&#45;&gt;AppModule -->
<g id="edge7" class="edge">
<title>AppLivreurModule&#45;&gt;AppModule</title>
<path fill="none" stroke="black" d="M1403,-84.91C1403,-104.14 1403,-131.8 1403,-131.8 1403,-131.8 934.67,-131.8 934.67,-131.8"/>
<polygon fill="black" stroke="black" points="934.67,-128.3 924.67,-131.8 934.67,-135.3 934.67,-128.3"/>
</g>
<!-- AppProduitModule -->
<g id="node9" class="node">
<title>AppProduitModule</title>
<polygon fill="#8dd3c7" stroke="black" points="1322.38,-84.8 1319.38,-88.8 1298.38,-88.8 1295.38,-84.8 1197.62,-84.8 1197.62,-48.8 1322.38,-48.8 1322.38,-84.8"/>
<text text-anchor="middle" x="1260" y="-62.6" font-family="Times,serif" font-size="14.00">AppProduitModule</text>
</g>
<!-- AppProduitModule&#45;&gt;AppModule -->
<g id="edge8" class="edge">
<title>AppProduitModule&#45;&gt;AppModule</title>
<path fill="none" stroke="black" d="M1260,-84.82C1260,-102.17 1260,-125.8 1260,-125.8 1260,-125.8 934.79,-125.8 934.79,-125.8"/>
<polygon fill="black" stroke="black" points="934.79,-122.3 924.79,-125.8 934.79,-129.3 934.79,-122.3"/>
</g>
<!-- AppProviderModule -->
<g id="node10" class="node">
<title>AppProviderModule</title>
<polygon fill="#8dd3c7" stroke="black" points="1179.87,-84.8 1176.87,-88.8 1155.87,-88.8 1152.87,-84.8 1048.13,-84.8 1048.13,-48.8 1179.87,-48.8 1179.87,-84.8"/>
<text text-anchor="middle" x="1114" y="-62.6" font-family="Times,serif" font-size="14.00">AppProviderModule</text>
</g>
<!-- AppProviderModule&#45;&gt;AppModule -->
<g id="edge9" class="edge">
<title>AppProviderModule&#45;&gt;AppModule</title>
<path fill="none" stroke="black" d="M1114,-85.04C1114,-100.37 1114,-119.8 1114,-119.8 1114,-119.8 934.83,-119.8 934.83,-119.8"/>
<polygon fill="black" stroke="black" points="934.83,-116.3 924.83,-119.8 934.83,-123.3 934.83,-116.3"/>
</g>
<!-- AppRoutingModule -->
<g id="node11" class="node">
<title>AppRoutingModule</title>
<polygon fill="#8dd3c7" stroke="black" points="1030.27,-84.8 1027.27,-88.8 1006.27,-88.8 1003.27,-84.8 901.73,-84.8 901.73,-48.8 1030.27,-48.8 1030.27,-84.8"/>
<text text-anchor="middle" x="966" y="-62.6" font-family="Times,serif" font-size="14.00">AppRoutingModule</text>
</g>
<!-- AppRoutingModule&#45;&gt;AppModule -->
<g id="edge10" class="edge">
<title>AppRoutingModule&#45;&gt;AppModule</title>
<path fill="none" stroke="black" d="M913.22,-84.91C913.22,-84.91 913.22,-103.79 913.22,-103.79"/>
<polygon fill="black" stroke="black" points="909.72,-103.79 913.22,-113.79 916.72,-103.79 909.72,-103.79"/>
</g>
<!-- AppSharedRoutingModule -->
<g id="node12" class="node">
<title>AppSharedRoutingModule</title>
<polygon fill="#8dd3c7" stroke="black" points="883.65,-84.8 880.65,-88.8 859.65,-88.8 856.65,-84.8 716.35,-84.8 716.35,-48.8 883.65,-48.8 883.65,-84.8"/>
<text text-anchor="middle" x="800" y="-62.6" font-family="Times,serif" font-size="14.00">AppSharedRoutingModule</text>
</g>
<!-- AppSharedRoutingModule&#45;&gt;AppModule -->
<g id="edge11" class="edge">
<title>AppSharedRoutingModule&#45;&gt;AppModule</title>
<path fill="none" stroke="black" d="M862.5,-84.91C862.5,-84.91 862.5,-103.79 862.5,-103.79"/>
<polygon fill="black" stroke="black" points="859,-103.79 862.5,-113.79 866,-103.79 859,-103.79"/>
</g>
<!-- CartRoutingModule -->
<g id="node13" class="node">
<title>CartRoutingModule</title>
<polygon fill="#8dd3c7" stroke="black" points="698.27,-84.8 695.27,-88.8 674.27,-88.8 671.27,-84.8 569.73,-84.8 569.73,-48.8 698.27,-48.8 698.27,-84.8"/>
<text text-anchor="middle" x="634" y="-62.6" font-family="Times,serif" font-size="14.00">CartRoutingModule</text>
</g>
<!-- CartRoutingModule&#45;&gt;AppModule -->
<g id="edge12" class="edge">
<title>CartRoutingModule&#45;&gt;AppModule</title>
<path fill="none" stroke="black" d="M634,-85.04C634,-100.37 634,-119.8 634,-119.8 634,-119.8 831.32,-119.8 831.32,-119.8"/>
<polygon fill="black" stroke="black" points="831.32,-123.3 841.32,-119.8 831.32,-116.3 831.32,-123.3"/>
</g>
</g>
</svg>
