<?xml version="1.0" encoding="UTF-8" standalone="no"?>
<!DOCTYPE svg PUBLIC "-//W3C//DTD SVG 1.1//EN"
 "http://www.w3.org/Graphics/SVG/1.1/DTD/svg11.dtd">
<!-- Generated by graphviz version 2.47.3 (20210619.1520)
 -->
<!-- Title: dependencies Pages: 1 -->
<svg width="761pt" height="174pt"
 viewBox="0.00 0.00 761.00 173.80" xmlns="http://www.w3.org/2000/svg" xmlns:xlink="http://www.w3.org/1999/xlink">
<g id="graph0" class="graph" transform="scale(1 1) rotate(0) translate(4 169.8)">
<title>dependencies</title>
<polygon fill="white" stroke="transparent" points="-4,4 -4,-169.8 757,-169.8 757,4 -4,4"/>
<text text-anchor="middle" x="376.5" y="-8.2" font-family="sans-serif" font-size="14.00">dependencies</text>
<g id="clust1" class="cluster">
<title>cluster_AppRoutingModule</title>
<polygon fill="none" stroke="black" stroke-dasharray="1,5" points="8,-32.8 8,-157.8 745,-157.8 745,-32.8 8,-32.8"/>
</g>
<g id="clust3" class="cluster">
<title>cluster_AppRoutingModule_imports</title>
<polygon fill="none" stroke="black" points="16,-40.8 16,-92.8 737,-92.8 737,-40.8 16,-40.8"/>
</g>
<!-- AppLivraisonRoutingModule -->
<g id="node1" class="node">
<title>AppLivraisonRoutingModule</title>
<polygon fill="#8dd3c7" stroke="black" points="729.43,-84.8 726.43,-88.8 705.43,-88.8 702.43,-84.8 546.57,-84.8 546.57,-48.8 729.43,-48.8 729.43,-84.8"/>
<text text-anchor="middle" x="638" y="-62.6" font-family="Times,serif" font-size="14.00">AppLivraisonRoutingModule</text>
</g>
<!-- AppRoutingModule -->
<g id="node5" class="node">
<title>AppRoutingModule</title>
<polygon fill="#8dd3c7" stroke="black" points="413.27,-149.8 410.27,-153.8 389.27,-153.8 386.27,-149.8 284.73,-149.8 284.73,-113.8 413.27,-113.8 413.27,-149.8"/>
<text text-anchor="middle" x="349" y="-127.6" font-family="Times,serif" font-size="14.00">AppRoutingModule</text>
</g>
<!-- AppLivraisonRoutingModule&#45;&gt;AppRoutingModule -->
<g id="edge1" class="edge">
<title>AppLivraisonRoutingModule&#45;&gt;AppRoutingModule</title>
<path fill="none" stroke="black" d="M638,-84.91C638,-104.14 638,-131.8 638,-131.8 638,-131.8 423.5,-131.8 423.5,-131.8"/>
<polygon fill="black" stroke="black" points="423.5,-128.3 413.5,-131.8 423.5,-135.3 423.5,-128.3"/>
</g>
<!-- AppLivreurRoutingModule -->
<g id="node2" class="node">
<title>AppLivreurRoutingModule</title>
<polygon fill="#8dd3c7" stroke="black" points="528.25,-84.8 525.25,-88.8 504.25,-88.8 501.25,-84.8 357.75,-84.8 357.75,-48.8 528.25,-48.8 528.25,-84.8"/>
<text text-anchor="middle" x="443" y="-62.6" font-family="Times,serif" font-size="14.00">AppLivreurRoutingModule</text>
</g>
<!-- AppLivreurRoutingModule&#45;&gt;AppRoutingModule -->
<g id="edge2" class="edge">
<title>AppLivreurRoutingModule&#45;&gt;AppRoutingModule</title>
<path fill="none" stroke="black" d="M385.51,-84.91C385.51,-84.91 385.51,-103.79 385.51,-103.79"/>
<polygon fill="black" stroke="black" points="382.01,-103.79 385.51,-113.79 389.01,-103.79 382.01,-103.79"/>
</g>
<!-- AppProduitRoutingModule -->
<g id="node3" class="node">
<title>AppProduitRoutingModule</title>
<polygon fill="#8dd3c7" stroke="black" points="340,-84.8 337,-88.8 316,-88.8 313,-84.8 170,-84.8 170,-48.8 340,-48.8 340,-84.8"/>
<text text-anchor="middle" x="255" y="-62.6" font-family="Times,serif" font-size="14.00">AppProduitRoutingModule</text>
</g>
<!-- AppProduitRoutingModule&#45;&gt;AppRoutingModule -->
<g id="edge3" class="edge">
<title>AppProduitRoutingModule&#45;&gt;AppRoutingModule</title>
<path fill="none" stroke="black" d="M312.31,-84.91C312.31,-84.91 312.31,-103.79 312.31,-103.79"/>
<polygon fill="black" stroke="black" points="308.81,-103.79 312.31,-113.79 315.81,-103.79 308.81,-103.79"/>
</g>
<!-- CartRoutingModule -->
<g id="node4" class="node">
<title>CartRoutingModule</title>
<polygon fill="#8dd3c7" stroke="black" points="152.27,-84.8 149.27,-88.8 128.27,-88.8 125.27,-84.8 23.73,-84.8 23.73,-48.8 152.27,-48.8 152.27,-84.8"/>
<text text-anchor="middle" x="88" y="-62.6" font-family="Times,serif" font-size="14.00">CartRoutingModule</text>
</g>
<!-- CartRoutingModule&#45;&gt;AppRoutingModule -->
<g id="edge4" class="edge">
<title>CartRoutingModule&#45;&gt;AppRoutingModule</title>
<path fill="none" stroke="black" d="M88,-84.91C88,-104.14 88,-131.8 88,-131.8 88,-131.8 274.48,-131.8 274.48,-131.8"/>
<polygon fill="black" stroke="black" points="274.48,-135.3 284.48,-131.8 274.48,-128.3 274.48,-135.3"/>
</g>
</g>
</svg>
