<?xml version="1.0" encoding="UTF-8" standalone="no"?>
<!DOCTYPE svg PUBLIC "-//W3C//DTD SVG 1.1//EN"
 "http://www.w3.org/Graphics/SVG/1.1/DTD/svg11.dtd">
<!-- Generated by graphviz version 2.47.3 (20210619.1520)
 -->
<!-- Title: dependencies Pages: 1 -->
<svg width="848pt" height="174pt"
 viewBox="0.00 0.00 848.00 173.80" xmlns="http://www.w3.org/2000/svg" xmlns:xlink="http://www.w3.org/1999/xlink">
<g id="graph0" class="graph" transform="scale(1 1) rotate(0) translate(4 169.8)">
<title>dependencies</title>
<polygon fill="white" stroke="transparent" points="-4,4 -4,-169.8 844,-169.8 844,4 -4,4"/>
<text text-anchor="middle" x="420" y="-8.2" font-family="sans-serif" font-size="14.00">dependencies</text>
<g id="clust1" class="cluster">
<title>cluster_AppCartModule</title>
<polygon fill="none" stroke="black" stroke-dasharray="1,5" points="8,-32.8 8,-157.8 832,-157.8 832,-32.8 8,-32.8"/>
</g>
<g id="clust7" class="cluster">
<title>cluster_AppCartModule_imports</title>
<polygon fill="none" stroke="black" points="680,-40.8 680,-92.8 824,-92.8 824,-40.8 680,-40.8"/>
</g>
<g id="clust2" class="cluster">
<title>cluster_AppCartModule_declarations</title>
<polygon fill="none" stroke="black" points="16,-40.8 16,-92.8 672,-92.8 672,-40.8 16,-40.8"/>
</g>
<!-- CartComponent -->
<g id="node1" class="node">
<title>CartComponent</title>
<polygon fill="#ffffb3" stroke="black" points="663.94,-84.8 558.06,-84.8 558.06,-48.8 663.94,-48.8 663.94,-84.8"/>
<text text-anchor="middle" x="611" y="-62.6" font-family="Times,serif" font-size="14.00">CartComponent</text>
</g>
<!-- AppCartModule -->
<g id="node5" class="node">
<title>AppCartModule</title>
<polygon fill="#8dd3c7" stroke="black" points="427.76,-149.8 424.76,-153.8 403.76,-153.8 400.76,-149.8 320.24,-149.8 320.24,-113.8 427.76,-113.8 427.76,-149.8"/>
<text text-anchor="middle" x="374" y="-127.6" font-family="Times,serif" font-size="14.00">AppCartModule</text>
</g>
<!-- CartComponent&#45;&gt;AppCartModule -->
<g id="edge1" class="edge">
<title>CartComponent&#45;&gt;AppCartModule</title>
<path fill="none" stroke="black" d="M611,-84.82C611,-102.17 611,-125.8 611,-125.8 611,-125.8 437.78,-125.8 437.78,-125.8"/>
<polygon fill="black" stroke="black" points="437.78,-122.3 427.78,-125.8 437.78,-129.3 437.78,-122.3"/>
</g>
<!-- CartProductComponent -->
<g id="node2" class="node">
<title>CartProductComponent</title>
<polygon fill="#ffffb3" stroke="black" points="540.48,-84.8 391.52,-84.8 391.52,-48.8 540.48,-48.8 540.48,-84.8"/>
<text text-anchor="middle" x="466" y="-62.6" font-family="Times,serif" font-size="14.00">CartProductComponent</text>
</g>
<!-- CartProductComponent&#45;&gt;AppCartModule -->
<g id="edge2" class="edge">
<title>CartProductComponent&#45;&gt;AppCartModule</title>
<path fill="none" stroke="black" d="M409.69,-84.91C409.69,-84.91 409.69,-103.79 409.69,-103.79"/>
<polygon fill="black" stroke="black" points="406.19,-103.79 409.69,-113.79 413.19,-103.79 406.19,-103.79"/>
</g>
<!-- ProductDetailTestComponent -->
<g id="node3" class="node">
<title>ProductDetailTestComponent</title>
<polygon fill="#ffffb3" stroke="black" points="373.69,-84.8 190.31,-84.8 190.31,-48.8 373.69,-48.8 373.69,-84.8"/>
<text text-anchor="middle" x="282" y="-62.6" font-family="Times,serif" font-size="14.00">ProductDetailTestComponent</text>
</g>
<!-- ProductDetailTestComponent&#45;&gt;AppCartModule -->
<g id="edge3" class="edge">
<title>ProductDetailTestComponent&#45;&gt;AppCartModule</title>
<path fill="none" stroke="black" d="M337.95,-84.91C337.95,-84.91 337.95,-103.79 337.95,-103.79"/>
<polygon fill="black" stroke="black" points="334.45,-103.79 337.95,-113.79 341.45,-103.79 334.45,-103.79"/>
</g>
<!-- ProductDetailTestComponent&#45;&gt;AppCartModule -->
<g id="edge4" class="edge">
<title>ProductDetailTestComponent&#45;&gt;AppCartModule</title>
<path fill="none" stroke="black" d="M355.77,-84.91C355.77,-84.91 355.77,-103.79 355.77,-103.79"/>
<polygon fill="black" stroke="black" points="352.27,-103.79 355.77,-113.79 359.27,-103.79 352.27,-103.79"/>
</g>
<!-- ProductTestComponent -->
<g id="node4" class="node">
<title>ProductTestComponent</title>
<polygon fill="#ffffb3" stroke="black" points="172.48,-84.8 23.52,-84.8 23.52,-48.8 172.48,-48.8 172.48,-84.8"/>
<text text-anchor="middle" x="98" y="-62.6" font-family="Times,serif" font-size="14.00">ProductTestComponent</text>
</g>
<!-- ProductTestComponent&#45;&gt;AppCartModule -->
<g id="edge5" class="edge">
<title>ProductTestComponent&#45;&gt;AppCartModule</title>
<path fill="none" stroke="black" d="M98,-84.91C98,-104.14 98,-131.8 98,-131.8 98,-131.8 310.13,-131.8 310.13,-131.8"/>
<polygon fill="black" stroke="black" points="310.13,-135.3 320.13,-131.8 310.13,-128.3 310.13,-135.3"/>
</g>
<!-- CartRoutingModule -->
<g id="node6" class="node">
<title>CartRoutingModule</title>
<polygon fill="#8dd3c7" stroke="black" points="816.27,-84.8 813.27,-88.8 792.27,-88.8 789.27,-84.8 687.73,-84.8 687.73,-48.8 816.27,-48.8 816.27,-84.8"/>
<text text-anchor="middle" x="752" y="-62.6" font-family="Times,serif" font-size="14.00">CartRoutingModule</text>
</g>
<!-- CartRoutingModule&#45;&gt;AppCartModule -->
<g id="edge6" class="edge">
<title>CartRoutingModule&#45;&gt;AppCartModule</title>
<path fill="none" stroke="black" d="M752,-85.08C752,-106.12 752,-137.8 752,-137.8 752,-137.8 438.16,-137.8 438.16,-137.8"/>
<polygon fill="black" stroke="black" points="438.16,-134.3 428.16,-137.8 438.16,-141.3 438.16,-134.3"/>
</g>
</g>
</svg>
