<?xml version="1.0" encoding="UTF-8" standalone="no"?>
<!DOCTYPE svg PUBLIC "-//W3C//DTD SVG 1.1//EN"
 "http://www.w3.org/Graphics/SVG/1.1/DTD/svg11.dtd">
<!-- Generated by graphviz version 2.47.3 (20210619.1520)
 -->
<!-- Title: dependencies Pages: 1 -->
<svg width="714pt" height="174pt"
 viewBox="0.00 0.00 714.00 173.80" xmlns="http://www.w3.org/2000/svg" xmlns:xlink="http://www.w3.org/1999/xlink">
<g id="graph0" class="graph" transform="scale(1 1) rotate(0) translate(4 169.8)">
<title>dependencies</title>
<polygon fill="white" stroke="transparent" points="-4,4 -4,-169.8 710,-169.8 710,4 -4,4"/>
<text text-anchor="middle" x="353" y="-8.2" font-family="sans-serif" font-size="14.00">dependencies</text>
<g id="clust1" class="cluster">
<title>cluster_AppLivreurModule</title>
<polygon fill="none" stroke="black" stroke-dasharray="1,5" points="8,-32.8 8,-157.8 698,-157.8 698,-32.8 8,-32.8"/>
</g>
<g id="clust6" class="cluster">
<title>cluster_AppLivreurModule_imports</title>
<polygon fill="none" stroke="black" points="504,-40.8 504,-92.8 690,-92.8 690,-40.8 504,-40.8"/>
</g>
<g id="clust2" class="cluster">
<title>cluster_AppLivreurModule_declarations</title>
<polygon fill="none" stroke="black" points="16,-40.8 16,-92.8 496,-92.8 496,-40.8 16,-40.8"/>
</g>
<!-- HireLivreurComponent -->
<g id="node1" class="node">
<title>HireLivreurComponent</title>
<polygon fill="#ffffb3" stroke="black" points="488.18,-84.8 339.82,-84.8 339.82,-48.8 488.18,-48.8 488.18,-84.8"/>
<text text-anchor="middle" x="414" y="-62.6" font-family="Times,serif" font-size="14.00">HireLivreurComponent</text>
</g>
<!-- AppLivreurModule -->
<g id="node4" class="node">
<title>AppLivreurModule</title>
<polygon fill="#8dd3c7" stroke="black" points="391.64,-149.8 388.64,-153.8 367.64,-153.8 364.64,-149.8 266.36,-149.8 266.36,-113.8 391.64,-113.8 391.64,-149.8"/>
<text text-anchor="middle" x="329" y="-127.6" font-family="Times,serif" font-size="14.00">AppLivreurModule</text>
</g>
<!-- HireLivreurComponent&#45;&gt;AppLivreurModule -->
<g id="edge1" class="edge">
<title>HireLivreurComponent&#45;&gt;AppLivreurModule</title>
<path fill="none" stroke="black" d="M365.86,-84.91C365.86,-84.91 365.86,-103.79 365.86,-103.79"/>
<polygon fill="black" stroke="black" points="362.36,-103.79 365.86,-113.79 369.36,-103.79 362.36,-103.79"/>
</g>
<!-- ListLivraisonComponent -->
<g id="node2" class="node">
<title>ListLivraisonComponent</title>
<polygon fill="#ffffb3" stroke="black" points="322.26,-84.8 165.74,-84.8 165.74,-48.8 322.26,-48.8 322.26,-84.8"/>
<text text-anchor="middle" x="244" y="-62.6" font-family="Times,serif" font-size="14.00">ListLivraisonComponent</text>
</g>
<!-- ListLivraisonComponent&#45;&gt;AppLivreurModule -->
<g id="edge2" class="edge">
<title>ListLivraisonComponent&#45;&gt;AppLivreurModule</title>
<path fill="none" stroke="black" d="M294.28,-84.91C294.28,-84.91 294.28,-103.79 294.28,-103.79"/>
<polygon fill="black" stroke="black" points="290.78,-103.79 294.28,-113.79 297.78,-103.79 290.78,-103.79"/>
</g>
<!-- LivreurComponent -->
<g id="node3" class="node">
<title>LivreurComponent</title>
<polygon fill="#ffffb3" stroke="black" points="147.81,-84.8 24.19,-84.8 24.19,-48.8 147.81,-48.8 147.81,-84.8"/>
<text text-anchor="middle" x="86" y="-62.6" font-family="Times,serif" font-size="14.00">LivreurComponent</text>
</g>
<!-- LivreurComponent&#45;&gt;AppLivreurModule -->
<g id="edge3" class="edge">
<title>LivreurComponent&#45;&gt;AppLivreurModule</title>
<path fill="none" stroke="black" d="M86,-84.91C86,-104.14 86,-131.8 86,-131.8 86,-131.8 256.11,-131.8 256.11,-131.8"/>
<polygon fill="black" stroke="black" points="256.11,-135.3 266.11,-131.8 256.11,-128.3 256.11,-135.3"/>
</g>
<!-- AppLivreurRoutingModule -->
<g id="node5" class="node">
<title>AppLivreurRoutingModule</title>
<polygon fill="#8dd3c7" stroke="black" points="682.25,-84.8 679.25,-88.8 658.25,-88.8 655.25,-84.8 511.75,-84.8 511.75,-48.8 682.25,-48.8 682.25,-84.8"/>
<text text-anchor="middle" x="597" y="-62.6" font-family="Times,serif" font-size="14.00">AppLivreurRoutingModule</text>
</g>
<!-- AppLivreurRoutingModule&#45;&gt;AppLivreurModule -->
<g id="edge4" class="edge">
<title>AppLivreurRoutingModule&#45;&gt;AppLivreurModule</title>
<path fill="none" stroke="black" d="M597,-84.91C597,-104.14 597,-131.8 597,-131.8 597,-131.8 401.83,-131.8 401.83,-131.8"/>
<polygon fill="black" stroke="black" points="401.83,-128.3 391.83,-131.8 401.83,-135.3 401.83,-128.3"/>
</g>
</g>
</svg>
