<?xml version="1.0" encoding="UTF-8" standalone="no"?>
<!DOCTYPE svg PUBLIC "-//W3C//DTD SVG 1.1//EN"
 "http://www.w3.org/Graphics/SVG/1.1/DTD/svg11.dtd">
<!-- Generated by graphviz version 2.47.3 (20210619.1520)
 -->
<!-- Title: dependencies Pages: 1 -->
<svg width="3817pt" height="323pt"
 viewBox="0.00 0.00 3817.00 322.80" xmlns="http://www.w3.org/2000/svg" xmlns:xlink="http://www.w3.org/1999/xlink">
<g id="graph0" class="graph" transform="scale(1 1) rotate(0) translate(4 318.8)">
<title>dependencies</title>
<polygon fill="white" stroke="transparent" points="-4,4 -4,-318.8 3813,-318.8 3813,4 -4,4"/>
<text text-anchor="middle" x="1904.5" y="-8.2" font-family="sans-serif" font-size="14.00">dependencies</text>
<g id="clust1" class="cluster">
<title>cluster_AppCartModule</title>
<polygon fill="none" stroke="black" stroke-dasharray="1,5" points="8,-32.8 8,-168.8 832,-168.8 832,-32.8 8,-32.8"/>
</g>
<g id="clust2" class="cluster">
<title>cluster_AppCartModule_declarations</title>
<polygon fill="none" stroke="black" points="168,-40.8 168,-92.8 824,-92.8 824,-40.8 168,-40.8"/>
</g>
<g id="clust7" class="cluster">
<title>cluster_AppCartModule_imports</title>
<polygon fill="none" stroke="black" points="16,-40.8 16,-92.8 160,-92.8 160,-40.8 16,-40.8"/>
</g>
<g id="clust11" class="cluster">
<title>cluster_AppLivraisonModule</title>
<polygon fill="none" stroke="black" stroke-dasharray="1,5" points="840,-32.8 840,-168.8 1632,-168.8 1632,-32.8 840,-32.8"/>
</g>
<g id="clust12" class="cluster">
<title>cluster_AppLivraisonModule_declarations</title>
<polygon fill="none" stroke="black" points="848,-40.8 848,-92.8 1418,-92.8 1418,-40.8 848,-40.8"/>
</g>
<g id="clust16" class="cluster">
<title>cluster_AppLivraisonModule_imports</title>
<polygon fill="none" stroke="black" points="1426,-40.8 1426,-92.8 1624,-92.8 1624,-40.8 1426,-40.8"/>
</g>
<g id="clust26" class="cluster">
<title>cluster_AppLivreurModule</title>
<polygon fill="none" stroke="black" stroke-dasharray="1,5" points="3111,-32.8 3111,-168.8 3801,-168.8 3801,-32.8 3111,-32.8"/>
</g>
<g id="clust27" class="cluster">
<title>cluster_AppLivreurModule_declarations</title>
<polygon fill="none" stroke="black" points="3313,-40.8 3313,-92.8 3793,-92.8 3793,-40.8 3313,-40.8"/>
</g>
<g id="clust31" class="cluster">
<title>cluster_AppLivreurModule_imports</title>
<polygon fill="none" stroke="black" points="3119,-40.8 3119,-92.8 3305,-92.8 3305,-40.8 3119,-40.8"/>
</g>
<g id="clust41" class="cluster">
<title>cluster_AppModule</title>
<polygon fill="none" stroke="black" stroke-dasharray="1,5" points="1886,-108.8 1886,-306.8 3071,-306.8 3071,-108.8 1886,-108.8"/>
</g>
<g id="clust42" class="cluster">
<title>cluster_AppModule_declarations</title>
<polygon fill="none" stroke="black" points="2525,-116.8 2525,-168.8 3063,-168.8 3063,-116.8 2525,-116.8"/>
</g>
<g id="clust47" class="cluster">
<title>cluster_AppModule_imports</title>
<polygon fill="none" stroke="black" points="1894,-116.8 1894,-168.8 2517,-168.8 2517,-116.8 1894,-116.8"/>
</g>
<g id="clust49" class="cluster">
<title>cluster_AppModule_bootstrap</title>
<polygon fill="none" stroke="black" points="2312,-246.8 2312,-298.8 2436,-298.8 2436,-246.8 2312,-246.8"/>
</g>
<g id="clust51" class="cluster">
<title>cluster_AppProduitModule</title>
<polygon fill="none" stroke="black" stroke-dasharray="1,5" points="2389,-32.8 2389,-100.8 3103,-100.8 3103,-32.8 2389,-32.8"/>
</g>
<g id="clust52" class="cluster">
<title>cluster_AppProduitModule_declarations</title>
<polygon fill="none" stroke="black" points="2591,-40.8 2591,-92.8 3095,-92.8 3095,-40.8 2591,-40.8"/>
</g>
<g id="clust56" class="cluster">
<title>cluster_AppProduitModule_imports</title>
<polygon fill="none" stroke="black" points="2397,-40.8 2397,-92.8 2583,-92.8 2583,-40.8 2397,-40.8"/>
</g>
<g id="clust66" class="cluster">
<title>cluster_AppProviderModule</title>
<polygon fill="none" stroke="black" stroke-dasharray="1,5" points="1640,-32.8 1640,-100.8 2381,-100.8 2381,-32.8 1640,-32.8"/>
</g>
<g id="clust67" class="cluster">
<title>cluster_AppProviderModule_declarations</title>
<polygon fill="none" stroke="black" points="1848,-40.8 1848,-92.8 2373,-92.8 2373,-40.8 1848,-40.8"/>
</g>
<g id="clust71" class="cluster">
<title>cluster_AppProviderModule_imports</title>
<polygon fill="none" stroke="black" points="1648,-40.8 1648,-92.8 1840,-92.8 1840,-40.8 1648,-40.8"/>
</g>
<!-- CartComponent -->
<g id="node1" class="node">
<title>CartComponent</title>
<polygon fill="#ffffb3" stroke="black" points="447.94,-84.8 342.06,-84.8 342.06,-48.8 447.94,-48.8 447.94,-84.8"/>
<text text-anchor="middle" x="395" y="-62.6" font-family="Times,serif" font-size="14.00">CartComponent</text>
</g>
<!-- AppCartModule -->
<g id="node5" class="node">
<title>AppCartModule</title>
<polygon fill="#8dd3c7" stroke="black" points="593.76,-160.8 590.76,-164.8 569.76,-164.8 566.76,-160.8 486.24,-160.8 486.24,-124.8 593.76,-124.8 593.76,-160.8"/>
<text text-anchor="middle" x="540" y="-138.6" font-family="Times,serif" font-size="14.00">AppCartModule</text>
</g>
<!-- CartComponent&#45;&gt;AppCartModule -->
<g id="edge1" class="edge">
<title>CartComponent&#45;&gt;AppCartModule</title>
<path fill="none" stroke="black" d="M395,-85.11C395,-104.95 395,-133.8 395,-133.8 395,-133.8 476.01,-133.8 476.01,-133.8"/>
<polygon fill="black" stroke="black" points="476.01,-137.3 486.01,-133.8 476.01,-130.3 476.01,-137.3"/>
</g>
<!-- CartProductComponent -->
<g id="node2" class="node">
<title>CartProductComponent</title>
<polygon fill="#ffffb3" stroke="black" points="324.48,-84.8 175.52,-84.8 175.52,-48.8 324.48,-48.8 324.48,-84.8"/>
<text text-anchor="middle" x="250" y="-62.6" font-family="Times,serif" font-size="14.00">CartProductComponent</text>
</g>
<!-- CartProductComponent&#45;&gt;AppCartModule -->
<g id="edge2" class="edge">
<title>CartProductComponent&#45;&gt;AppCartModule</title>
<path fill="none" stroke="black" d="M250,-84.81C250,-107.29 250,-142.8 250,-142.8 250,-142.8 476.13,-142.8 476.13,-142.8"/>
<polygon fill="black" stroke="black" points="476.13,-146.3 486.13,-142.8 476.13,-139.3 476.13,-146.3"/>
</g>
<!-- ProductDetailTestComponent -->
<g id="node3" class="node">
<title>ProductDetailTestComponent</title>
<polygon fill="#ffffb3" stroke="black" points="815.69,-84.8 632.31,-84.8 632.31,-48.8 815.69,-48.8 815.69,-84.8"/>
<text text-anchor="middle" x="724" y="-62.6" font-family="Times,serif" font-size="14.00">ProductDetailTestComponent</text>
</g>
<!-- ProductDetailTestComponent&#45;&gt;AppCartModule -->
<g id="edge3" class="edge">
<title>ProductDetailTestComponent&#45;&gt;AppCartModule</title>
<path fill="none" stroke="black" d="M754.53,-84.83C754.53,-110.31 754.53,-153.8 754.53,-153.8 754.53,-153.8 603.86,-153.8 603.86,-153.8"/>
<polygon fill="black" stroke="black" points="603.86,-150.3 593.86,-153.8 603.86,-157.3 603.86,-150.3"/>
</g>
<!-- ProductDetailTestComponent&#45;&gt;AppCartModule -->
<g id="edge4" class="edge">
<title>ProductDetailTestComponent&#45;&gt;AppCartModule</title>
<path fill="none" stroke="black" d="M693.47,-84.95C693.47,-108.56 693.47,-146.8 693.47,-146.8 693.47,-146.8 604.11,-146.8 604.11,-146.8"/>
<polygon fill="black" stroke="black" points="604.11,-143.3 594.11,-146.8 604.11,-150.3 604.11,-143.3"/>
</g>
<!-- ProductTestComponent -->
<g id="node4" class="node">
<title>ProductTestComponent</title>
<polygon fill="#ffffb3" stroke="black" points="614.48,-84.8 465.52,-84.8 465.52,-48.8 614.48,-48.8 614.48,-84.8"/>
<text text-anchor="middle" x="540" y="-62.6" font-family="Times,serif" font-size="14.00">ProductTestComponent</text>
</g>
<!-- ProductTestComponent&#45;&gt;AppCartModule -->
<g id="edge5" class="edge">
<title>ProductTestComponent&#45;&gt;AppCartModule</title>
<path fill="none" stroke="black" d="M540,-84.81C540,-84.81 540,-114.65 540,-114.65"/>
<polygon fill="black" stroke="black" points="536.5,-114.65 540,-124.65 543.5,-114.65 536.5,-114.65"/>
</g>
<!-- AppModule -->
<g id="node21" class="node">
<title>AppModule</title>
<polygon fill="#8dd3c7" stroke="black" points="2415.66,-225.8 2412.66,-229.8 2391.66,-229.8 2388.66,-225.8 2332.34,-225.8 2332.34,-189.8 2415.66,-189.8 2415.66,-225.8"/>
<text text-anchor="middle" x="2374" y="-203.6" font-family="Times,serif" font-size="14.00">AppModule</text>
</g>
<!-- AppCartModule&#45;&gt;AppModule -->
<g id="edge19" class="edge">
<title>AppCartModule&#45;&gt;AppModule</title>
<path fill="none" stroke="black" d="M540,-161.08C540,-182.12 540,-213.8 540,-213.8 540,-213.8 2322.25,-213.8 2322.25,-213.8"/>
<polygon fill="black" stroke="black" points="2322.25,-217.3 2332.25,-213.8 2322.25,-210.3 2322.25,-217.3"/>
</g>
<!-- CartRoutingModule -->
<g id="node6" class="node">
<title>CartRoutingModule</title>
<polygon fill="#8dd3c7" stroke="black" points="152.27,-84.8 149.27,-88.8 128.27,-88.8 125.27,-84.8 23.73,-84.8 23.73,-48.8 152.27,-48.8 152.27,-84.8"/>
<text text-anchor="middle" x="88" y="-62.6" font-family="Times,serif" font-size="14.00">CartRoutingModule</text>
</g>
<!-- CartRoutingModule&#45;&gt;AppCartModule -->
<g id="edge6" class="edge">
<title>CartRoutingModule&#45;&gt;AppCartModule</title>
<path fill="none" stroke="black" d="M120.19,-84.83C120.19,-109.78 120.19,-151.8 120.19,-151.8 120.19,-151.8 475.98,-151.8 475.98,-151.8"/>
<polygon fill="black" stroke="black" points="475.98,-155.3 485.98,-151.8 475.98,-148.3 475.98,-155.3"/>
</g>
<!-- CartRoutingModule&#45;&gt;AppModule -->
<g id="edge26" class="edge">
<title>CartRoutingModule&#45;&gt;AppModule</title>
<path fill="none" stroke="black" d="M55.81,-84.95C55.81,-125.48 55.81,-219.8 55.81,-219.8 55.81,-219.8 2322.28,-219.8 2322.28,-219.8"/>
<polygon fill="black" stroke="black" points="2322.28,-223.3 2332.28,-219.8 2322.28,-216.3 2322.28,-223.3"/>
</g>
<!-- AppRoutingModule -->
<g id="node24" class="node">
<title>AppRoutingModule</title>
<polygon fill="#8dd3c7" stroke="black" points="2366.27,-160.8 2363.27,-164.8 2342.27,-164.8 2339.27,-160.8 2237.73,-160.8 2237.73,-124.8 2366.27,-124.8 2366.27,-160.8"/>
<text text-anchor="middle" x="2302" y="-138.6" font-family="Times,serif" font-size="14.00">AppRoutingModule</text>
</g>
<!-- CartRoutingModule&#45;&gt;AppRoutingModule -->
<g id="edge39" class="edge">
<title>CartRoutingModule&#45;&gt;AppRoutingModule</title>
<path fill="none" stroke="black" d="M88,-85.04C88,-92.23 88,-98.8 88,-98.8 88,-98.8 2269.35,-98.8 2269.35,-98.8 2269.35,-98.8 2269.35,-114.65 2269.35,-114.65"/>
<polygon fill="black" stroke="black" points="2265.85,-114.65 2269.35,-124.65 2272.85,-114.65 2265.85,-114.65"/>
</g>
<!-- FormLivraisonCheckoutComponent -->
<g id="node7" class="node">
<title>FormLivraisonCheckoutComponent</title>
<polygon fill="#ffffb3" stroke="black" points="1410.48,-84.8 1191.52,-84.8 1191.52,-48.8 1410.48,-48.8 1410.48,-84.8"/>
<text text-anchor="middle" x="1301" y="-62.6" font-family="Times,serif" font-size="14.00">FormLivraisonCheckoutComponent</text>
</g>
<!-- AppLivraisonModule -->
<g id="node10" class="node">
<title>AppLivraisonModule</title>
<polygon fill="#8dd3c7" stroke="black" points="1369.81,-160.8 1366.81,-164.8 1345.81,-164.8 1342.81,-160.8 1232.19,-160.8 1232.19,-124.8 1369.81,-124.8 1369.81,-160.8"/>
<text text-anchor="middle" x="1301" y="-138.6" font-family="Times,serif" font-size="14.00">AppLivraisonModule</text>
</g>
<!-- FormLivraisonCheckoutComponent&#45;&gt;AppLivraisonModule -->
<g id="edge7" class="edge">
<title>FormLivraisonCheckoutComponent&#45;&gt;AppLivraisonModule</title>
<path fill="none" stroke="black" d="M1301,-84.81C1301,-84.81 1301,-114.65 1301,-114.65"/>
<polygon fill="black" stroke="black" points="1297.5,-114.65 1301,-124.65 1304.5,-114.65 1297.5,-114.65"/>
</g>
<!-- LivraisonComponent -->
<g id="node8" class="node">
<title>LivraisonComponent</title>
<polygon fill="#ffffb3" stroke="black" points="1173.49,-84.8 1038.51,-84.8 1038.51,-48.8 1173.49,-48.8 1173.49,-84.8"/>
<text text-anchor="middle" x="1106" y="-62.6" font-family="Times,serif" font-size="14.00">LivraisonComponent</text>
</g>
<!-- LivraisonComponent&#45;&gt;AppLivraisonModule -->
<g id="edge8" class="edge">
<title>LivraisonComponent&#45;&gt;AppLivraisonModule</title>
<path fill="none" stroke="black" d="M1106,-84.83C1106,-104.38 1106,-132.8 1106,-132.8 1106,-132.8 1222.25,-132.8 1222.25,-132.8"/>
<polygon fill="black" stroke="black" points="1222.25,-136.3 1232.25,-132.8 1222.25,-129.3 1222.25,-136.3"/>
</g>
<!-- MainLivraisonComponent -->
<g id="node9" class="node">
<title>MainLivraisonComponent</title>
<polygon fill="#ffffb3" stroke="black" points="1020.04,-84.8 855.96,-84.8 855.96,-48.8 1020.04,-48.8 1020.04,-84.8"/>
<text text-anchor="middle" x="938" y="-62.6" font-family="Times,serif" font-size="14.00">MainLivraisonComponent</text>
</g>
<!-- MainLivraisonComponent&#45;&gt;AppLivraisonModule -->
<g id="edge9" class="edge">
<title>MainLivraisonComponent&#45;&gt;AppLivraisonModule</title>
<path fill="none" stroke="black" d="M938,-84.84C938,-106.46 938,-139.8 938,-139.8 938,-139.8 1222.3,-139.8 1222.3,-139.8"/>
<polygon fill="black" stroke="black" points="1222.3,-143.3 1232.3,-139.8 1222.3,-136.3 1222.3,-143.3"/>
</g>
<!-- AppLivraisonModule&#45;&gt;AppModule -->
<g id="edge20" class="edge">
<title>AppLivraisonModule&#45;&gt;AppModule</title>
<path fill="none" stroke="black" d="M1301,-160.91C1301,-180.14 1301,-207.8 1301,-207.8 1301,-207.8 2322.27,-207.8 2322.27,-207.8"/>
<polygon fill="black" stroke="black" points="2322.27,-211.3 2332.27,-207.8 2322.27,-204.3 2322.27,-211.3"/>
</g>
<!-- AppLivraisonRoutingModule -->
<g id="node11" class="node">
<title>AppLivraisonRoutingModule</title>
<polygon fill="#8dd3c7" stroke="black" points="1616.43,-84.8 1613.43,-88.8 1592.43,-88.8 1589.43,-84.8 1433.57,-84.8 1433.57,-48.8 1616.43,-48.8 1616.43,-84.8"/>
<text text-anchor="middle" x="1525" y="-62.6" font-family="Times,serif" font-size="14.00">AppLivraisonRoutingModule</text>
</g>
<!-- AppLivraisonRoutingModule&#45;&gt;AppLivraisonModule -->
<g id="edge10" class="edge">
<title>AppLivraisonRoutingModule&#45;&gt;AppLivraisonModule</title>
<path fill="none" stroke="black" d="M1555.4,-84.81C1555.4,-107.29 1555.4,-142.8 1555.4,-142.8 1555.4,-142.8 1379.85,-142.8 1379.85,-142.8"/>
<polygon fill="black" stroke="black" points="1379.85,-139.3 1369.85,-142.8 1379.85,-146.3 1379.85,-139.3"/>
</g>
<!-- AppLivraisonRoutingModule&#45;&gt;AppRoutingModule -->
<g id="edge36" class="edge">
<title>AppLivraisonRoutingModule&#45;&gt;AppRoutingModule</title>
<path fill="none" stroke="black" d="M1494.6,-84.96C1494.6,-89.84 1494.6,-93.8 1494.6,-93.8 1494.6,-93.8 2301.08,-93.8 2301.08,-93.8 2301.08,-93.8 2301.08,-114.55 2301.08,-114.55"/>
<polygon fill="black" stroke="black" points="2297.58,-114.55 2301.08,-124.55 2304.58,-114.55 2297.58,-114.55"/>
</g>
<!-- HireLivreurComponent -->
<g id="node12" class="node">
<title>HireLivreurComponent</title>
<polygon fill="#ffffb3" stroke="black" points="3785.18,-84.8 3636.82,-84.8 3636.82,-48.8 3785.18,-48.8 3785.18,-84.8"/>
<text text-anchor="middle" x="3711" y="-62.6" font-family="Times,serif" font-size="14.00">HireLivreurComponent</text>
</g>
<!-- AppLivreurModule -->
<g id="node15" class="node">
<title>AppLivreurModule</title>
<polygon fill="#8dd3c7" stroke="black" points="3445.64,-160.8 3442.64,-164.8 3421.64,-164.8 3418.64,-160.8 3320.36,-160.8 3320.36,-124.8 3445.64,-124.8 3445.64,-160.8"/>
<text text-anchor="middle" x="3383" y="-138.6" font-family="Times,serif" font-size="14.00">AppLivreurModule</text>
</g>
<!-- HireLivreurComponent&#45;&gt;AppLivreurModule -->
<g id="edge11" class="edge">
<title>HireLivreurComponent&#45;&gt;AppLivreurModule</title>
<path fill="none" stroke="black" d="M3711,-85C3711,-109.16 3711,-148.8 3711,-148.8 3711,-148.8 3455.85,-148.8 3455.85,-148.8"/>
<polygon fill="black" stroke="black" points="3455.85,-145.3 3445.85,-148.8 3455.85,-152.3 3455.85,-145.3"/>
</g>
<!-- ListLivraisonComponent -->
<g id="node13" class="node">
<title>ListLivraisonComponent</title>
<polygon fill="#ffffb3" stroke="black" points="3619.26,-84.8 3462.74,-84.8 3462.74,-48.8 3619.26,-48.8 3619.26,-84.8"/>
<text text-anchor="middle" x="3541" y="-62.6" font-family="Times,serif" font-size="14.00">ListLivraisonComponent</text>
</g>
<!-- ListLivraisonComponent&#45;&gt;AppLivreurModule -->
<g id="edge12" class="edge">
<title>ListLivraisonComponent&#45;&gt;AppLivreurModule</title>
<path fill="none" stroke="black" d="M3541,-84.83C3541,-105.57 3541,-136.8 3541,-136.8 3541,-136.8 3455.9,-136.8 3455.9,-136.8"/>
<polygon fill="black" stroke="black" points="3455.9,-133.3 3445.9,-136.8 3455.9,-140.3 3455.9,-133.3"/>
</g>
<!-- LivreurComponent -->
<g id="node14" class="node">
<title>LivreurComponent</title>
<polygon fill="#ffffb3" stroke="black" points="3444.81,-84.8 3321.19,-84.8 3321.19,-48.8 3444.81,-48.8 3444.81,-84.8"/>
<text text-anchor="middle" x="3383" y="-62.6" font-family="Times,serif" font-size="14.00">LivreurComponent</text>
</g>
<!-- LivreurComponent&#45;&gt;AppLivreurModule -->
<g id="edge13" class="edge">
<title>LivreurComponent&#45;&gt;AppLivreurModule</title>
<path fill="none" stroke="black" d="M3383,-84.81C3383,-84.81 3383,-114.65 3383,-114.65"/>
<polygon fill="black" stroke="black" points="3379.5,-114.65 3383,-124.65 3386.5,-114.65 3379.5,-114.65"/>
</g>
<!-- AppLivreurModule&#45;&gt;AppModule -->
<g id="edge21" class="edge">
<title>AppLivreurModule&#45;&gt;AppModule</title>
<path fill="none" stroke="black" d="M3383,-161.05C3383,-183.82 3383,-219.8 3383,-219.8 3383,-219.8 2425.75,-219.8 2425.75,-219.8"/>
<polygon fill="black" stroke="black" points="2425.75,-216.3 2415.75,-219.8 2425.75,-223.3 2425.75,-216.3"/>
</g>
<!-- AppLivreurRoutingModule -->
<g id="node16" class="node">
<title>AppLivreurRoutingModule</title>
<polygon fill="#8dd3c7" stroke="black" points="3297.25,-84.8 3294.25,-88.8 3273.25,-88.8 3270.25,-84.8 3126.75,-84.8 3126.75,-48.8 3297.25,-48.8 3297.25,-84.8"/>
<text text-anchor="middle" x="3212" y="-62.6" font-family="Times,serif" font-size="14.00">AppLivreurRoutingModule</text>
</g>
<!-- AppLivreurRoutingModule&#45;&gt;AppLivreurModule -->
<g id="edge14" class="edge">
<title>AppLivreurRoutingModule&#45;&gt;AppLivreurModule</title>
<path fill="none" stroke="black" d="M3240.46,-84.81C3240.46,-107.29 3240.46,-142.8 3240.46,-142.8 3240.46,-142.8 3310.06,-142.8 3310.06,-142.8"/>
<polygon fill="black" stroke="black" points="3310.06,-146.3 3320.06,-142.8 3310.06,-139.3 3310.06,-146.3"/>
</g>
<!-- AppLivreurRoutingModule&#45;&gt;AppRoutingModule -->
<g id="edge37" class="edge">
<title>AppLivreurRoutingModule&#45;&gt;AppRoutingModule</title>
<path fill="none" stroke="black" d="M3183.54,-84.92C3183.54,-87.77 3183.54,-89.8 3183.54,-89.8 3183.54,-89.8 2332.81,-89.8 2332.81,-89.8 2332.81,-89.8 2332.81,-114.56 2332.81,-114.56"/>
<polygon fill="black" stroke="black" points="2329.31,-114.56 2332.81,-124.56 2336.31,-114.56 2329.31,-114.56"/>
</g>
<!-- AppComponent -->
<g id="node17" class="node">
<title>AppComponent</title>
<polygon fill="#ffffb3" stroke="black" points="3054.94,-160.8 2949.06,-160.8 2949.06,-124.8 3054.94,-124.8 3054.94,-160.8"/>
<text text-anchor="middle" x="3002" y="-138.6" font-family="Times,serif" font-size="14.00">AppComponent</text>
</g>
<!-- AppComponent&#45;&gt;AppModule -->
<g id="edge15" class="edge">
<title>AppComponent&#45;&gt;AppModule</title>
<path fill="none" stroke="black" d="M3002,-161.08C3002,-182.12 3002,-213.8 3002,-213.8 3002,-213.8 2425.69,-213.8 2425.69,-213.8"/>
<polygon fill="black" stroke="black" points="2425.69,-210.3 2415.69,-213.8 2425.69,-217.3 2425.69,-210.3"/>
</g>
<!-- BannerComponent -->
<g id="node18" class="node">
<title>BannerComponent</title>
<polygon fill="#ffffb3" stroke="black" points="2930.76,-160.8 2809.24,-160.8 2809.24,-124.8 2930.76,-124.8 2930.76,-160.8"/>
<text text-anchor="middle" x="2870" y="-138.6" font-family="Times,serif" font-size="14.00">BannerComponent</text>
</g>
<!-- BannerComponent&#45;&gt;AppModule -->
<g id="edge16" class="edge">
<title>BannerComponent&#45;&gt;AppModule</title>
<path fill="none" stroke="black" d="M2870,-160.91C2870,-180.14 2870,-207.8 2870,-207.8 2870,-207.8 2425.86,-207.8 2425.86,-207.8"/>
<polygon fill="black" stroke="black" points="2425.86,-204.3 2415.86,-207.8 2425.86,-211.3 2425.86,-204.3"/>
</g>
<!-- FooterComponent -->
<g id="node19" class="node">
<title>FooterComponent</title>
<polygon fill="#ffffb3" stroke="black" points="2790.88,-160.8 2673.12,-160.8 2673.12,-124.8 2790.88,-124.8 2790.88,-160.8"/>
<text text-anchor="middle" x="2732" y="-138.6" font-family="Times,serif" font-size="14.00">FooterComponent</text>
</g>
<!-- FooterComponent&#45;&gt;AppModule -->
<g id="edge17" class="edge">
<title>FooterComponent&#45;&gt;AppModule</title>
<path fill="none" stroke="black" d="M2732,-160.82C2732,-178.17 2732,-201.8 2732,-201.8 2732,-201.8 2425.77,-201.8 2425.77,-201.8"/>
<polygon fill="black" stroke="black" points="2425.77,-198.3 2415.77,-201.8 2425.77,-205.3 2425.77,-198.3"/>
</g>
<!-- HeaderComponent -->
<g id="node20" class="node">
<title>HeaderComponent</title>
<polygon fill="#ffffb3" stroke="black" points="2654.74,-160.8 2533.26,-160.8 2533.26,-124.8 2654.74,-124.8 2654.74,-160.8"/>
<text text-anchor="middle" x="2594" y="-138.6" font-family="Times,serif" font-size="14.00">HeaderComponent</text>
</g>
<!-- HeaderComponent&#45;&gt;AppModule -->
<g id="edge18" class="edge">
<title>HeaderComponent&#45;&gt;AppModule</title>
<path fill="none" stroke="black" d="M2594,-161.04C2594,-176.37 2594,-195.8 2594,-195.8 2594,-195.8 2425.9,-195.8 2425.9,-195.8"/>
<polygon fill="black" stroke="black" points="2425.9,-192.3 2415.9,-195.8 2425.9,-199.3 2425.9,-192.3"/>
</g>
<!-- AppComponent  -->
<g id="node26" class="node">
<title>AppComponent </title>
<polygon fill="#80b1d3" stroke="black" points="2428.44,-290.8 2319.56,-290.8 2319.56,-254.8 2428.44,-254.8 2428.44,-290.8"/>
<text text-anchor="middle" x="2374" y="-268.6" font-family="Times,serif" font-size="14.00">AppComponent </text>
</g>
<!-- AppModule&#45;&gt;AppComponent  -->
<g id="edge27" class="edge">
<title>AppModule&#45;&gt;AppComponent </title>
<path fill="none" stroke="black" stroke-dasharray="1,5" d="M2374,-225.91C2374,-225.91 2374,-244.79 2374,-244.79"/>
<polygon fill="black" stroke="black" points="2370.5,-244.79 2374,-254.79 2377.5,-244.79 2370.5,-244.79"/>
</g>
<!-- AppProduitModule -->
<g id="node22" class="node">
<title>AppProduitModule</title>
<polygon fill="#8dd3c7" stroke="black" points="2509.38,-160.8 2506.38,-164.8 2485.38,-164.8 2482.38,-160.8 2384.62,-160.8 2384.62,-124.8 2509.38,-124.8 2509.38,-160.8"/>
<text text-anchor="middle" x="2447" y="-138.6" font-family="Times,serif" font-size="14.00">AppProduitModule</text>
</g>
<!-- AppProduitModule&#45;&gt;AppModule -->
<g id="edge22" class="edge">
<title>AppProduitModule&#45;&gt;AppModule</title>
<path fill="none" stroke="black" d="M2400.19,-160.91C2400.19,-160.91 2400.19,-179.79 2400.19,-179.79"/>
<polygon fill="black" stroke="black" points="2396.69,-179.79 2400.19,-189.79 2403.69,-179.79 2396.69,-179.79"/>
</g>
<!-- AppProviderModule -->
<g id="node23" class="node">
<title>AppProviderModule</title>
<polygon fill="#8dd3c7" stroke="black" points="2219.87,-160.8 2216.87,-164.8 2195.87,-164.8 2192.87,-160.8 2088.13,-160.8 2088.13,-124.8 2219.87,-124.8 2219.87,-160.8"/>
<text text-anchor="middle" x="2154" y="-138.6" font-family="Times,serif" font-size="14.00">AppProviderModule</text>
</g>
<!-- AppProviderModule&#45;&gt;AppModule -->
<g id="edge23" class="edge">
<title>AppProviderModule&#45;&gt;AppModule</title>
<path fill="none" stroke="black" d="M2154,-161.04C2154,-176.37 2154,-195.8 2154,-195.8 2154,-195.8 2322.1,-195.8 2322.1,-195.8"/>
<polygon fill="black" stroke="black" points="2322.1,-199.3 2332.1,-195.8 2322.1,-192.3 2322.1,-199.3"/>
</g>
<!-- AppRoutingModule&#45;&gt;AppModule -->
<g id="edge24" class="edge">
<title>AppRoutingModule&#45;&gt;AppModule</title>
<path fill="none" stroke="black" d="M2349.28,-160.91C2349.28,-160.91 2349.28,-179.79 2349.28,-179.79"/>
<polygon fill="black" stroke="black" points="2345.78,-179.79 2349.28,-189.79 2352.78,-179.79 2345.78,-179.79"/>
</g>
<!-- AppSharedRoutingModule -->
<g id="node25" class="node">
<title>AppSharedRoutingModule</title>
<polygon fill="#8dd3c7" stroke="black" points="2069.65,-160.8 2066.65,-164.8 2045.65,-164.8 2042.65,-160.8 1902.35,-160.8 1902.35,-124.8 2069.65,-124.8 2069.65,-160.8"/>
<text text-anchor="middle" x="1986" y="-138.6" font-family="Times,serif" font-size="14.00">AppSharedRoutingModule</text>
</g>
<!-- AppSharedRoutingModule&#45;&gt;AppModule -->
<g id="edge25" class="edge">
<title>AppSharedRoutingModule&#45;&gt;AppModule</title>
<path fill="none" stroke="black" d="M1986,-160.82C1986,-178.17 1986,-201.8 1986,-201.8 1986,-201.8 2322.11,-201.8 2322.11,-201.8"/>
<polygon fill="black" stroke="black" points="2322.11,-205.3 2332.11,-201.8 2322.11,-198.3 2322.11,-205.3"/>
</g>
<!-- MainProduitComponent -->
<g id="node27" class="node">
<title>MainProduitComponent</title>
<polygon fill="#ffffb3" stroke="black" points="3087.11,-84.8 2934.89,-84.8 2934.89,-48.8 3087.11,-48.8 3087.11,-84.8"/>
<text text-anchor="middle" x="3011" y="-62.6" font-family="Times,serif" font-size="14.00">MainProduitComponent</text>
</g>
<!-- MainProduitComponent&#45;&gt;AppProduitModule -->
<g id="edge28" class="edge">
<title>MainProduitComponent&#45;&gt;AppProduitModule</title>
<path fill="none" stroke="black" d="M2942.11,-84.84C2942.11,-97.36 2942.11,-111.8 2942.11,-111.8 2942.11,-111.8 2488.55,-111.8 2488.55,-111.8 2488.55,-111.8 2488.55,-114.77 2488.55,-114.77"/>
<polygon fill="black" stroke="black" points="2485.05,-114.77 2488.55,-124.77 2492.05,-114.77 2485.05,-114.77"/>
</g>
<!-- ProduitComponent -->
<g id="node28" class="node">
<title>ProduitComponent</title>
<polygon fill="#ffffb3" stroke="black" points="2917.06,-84.8 2794.94,-84.8 2794.94,-48.8 2917.06,-48.8 2917.06,-84.8"/>
<text text-anchor="middle" x="2856" y="-62.6" font-family="Times,serif" font-size="14.00">ProduitComponent</text>
</g>
<!-- ProduitComponent&#45;&gt;AppProduitModule -->
<g id="edge29" class="edge">
<title>ProduitComponent&#45;&gt;AppProduitModule</title>
<path fill="none" stroke="black" d="M2801.92,-84.9C2801.92,-95.89 2801.92,-107.8 2801.92,-107.8 2801.92,-107.8 2467.66,-107.8 2467.66,-107.8 2467.66,-107.8 2467.66,-114.48 2467.66,-114.48"/>
<polygon fill="black" stroke="black" points="2464.16,-114.48 2467.66,-124.48 2471.16,-114.48 2464.16,-114.48"/>
</g>
<!-- ShowOneProduitComponent -->
<g id="node29" class="node">
<title>ShowOneProduitComponent</title>
<polygon fill="#ffffb3" stroke="black" points="2776.77,-84.8 2599.23,-84.8 2599.23,-48.8 2776.77,-48.8 2776.77,-84.8"/>
<text text-anchor="middle" x="2688" y="-62.6" font-family="Times,serif" font-size="14.00">ShowOneProduitComponent</text>
</g>
<!-- ShowOneProduitComponent&#45;&gt;AppProduitModule -->
<g id="edge30" class="edge">
<title>ShowOneProduitComponent&#45;&gt;AppProduitModule</title>
<path fill="none" stroke="black" d="M2626.99,-85.22C2626.99,-94.08 2626.99,-102.8 2626.99,-102.8 2626.99,-102.8 2446.78,-102.8 2446.78,-102.8 2446.78,-102.8 2446.78,-114.67 2446.78,-114.67"/>
<polygon fill="black" stroke="black" points="2443.28,-114.67 2446.78,-124.67 2450.28,-114.67 2443.28,-114.67"/>
</g>
<!-- AppProduitRoutingModule -->
<g id="node30" class="node">
<title>AppProduitRoutingModule</title>
<polygon fill="#8dd3c7" stroke="black" points="2575,-84.8 2572,-88.8 2551,-88.8 2548,-84.8 2405,-84.8 2405,-48.8 2575,-48.8 2575,-84.8"/>
<text text-anchor="middle" x="2490" y="-62.6" font-family="Times,serif" font-size="14.00">AppProduitRoutingModule</text>
</g>
<!-- AppProduitRoutingModule&#45;&gt;AppProduitModule -->
<g id="edge31" class="edge">
<title>AppProduitRoutingModule&#45;&gt;AppProduitModule</title>
<path fill="none" stroke="black" d="M2425.89,-84.81C2425.89,-84.81 2425.89,-114.65 2425.89,-114.65"/>
<polygon fill="black" stroke="black" points="2422.39,-114.65 2425.89,-124.65 2429.39,-114.65 2422.39,-114.65"/>
</g>
<!-- AppProduitRoutingModule&#45;&gt;AppRoutingModule -->
<g id="edge38" class="edge">
<title>AppProduitRoutingModule&#45;&gt;AppRoutingModule</title>
<path fill="none" stroke="black" d="M2404.97,-66.8C2388.1,-66.8 2375.47,-66.8 2375.47,-66.8 2375.47,-66.8 2375.47,-142.8 2375.47,-142.8 2375.47,-142.8 2374.57,-142.8 2374.57,-142.8"/>
<polygon fill="black" stroke="black" points="2376.46,-139.3 2366.46,-142.8 2376.46,-146.3 2376.46,-139.3"/>
</g>
<!-- MainProviderComponent -->
<g id="node31" class="node">
<title>MainProviderComponent</title>
<polygon fill="#ffffb3" stroke="black" points="2364.59,-84.8 2205.41,-84.8 2205.41,-48.8 2364.59,-48.8 2364.59,-84.8"/>
<text text-anchor="middle" x="2285" y="-62.6" font-family="Times,serif" font-size="14.00">MainProviderComponent</text>
</g>
<!-- MainProviderComponent&#45;&gt;AppProviderModule -->
<g id="edge32" class="edge">
<title>MainProviderComponent&#45;&gt;AppProviderModule</title>
<path fill="none" stroke="black" d="M2212.69,-84.81C2212.69,-84.81 2212.69,-114.65 2212.69,-114.65"/>
<polygon fill="black" stroke="black" points="2209.19,-114.65 2212.69,-124.65 2216.19,-114.65 2209.19,-114.65"/>
</g>
<!-- ProviderComponent -->
<g id="node32" class="node">
<title>ProviderComponent</title>
<polygon fill="#ffffb3" stroke="black" points="2187.54,-84.8 2058.46,-84.8 2058.46,-48.8 2187.54,-48.8 2187.54,-84.8"/>
<text text-anchor="middle" x="2123" y="-62.6" font-family="Times,serif" font-size="14.00">ProviderComponent</text>
</g>
<!-- ProviderComponent&#45;&gt;AppProviderModule -->
<g id="edge33" class="edge">
<title>ProviderComponent&#45;&gt;AppProviderModule</title>
<path fill="none" stroke="black" d="M2162.84,-84.81C2162.84,-84.81 2162.84,-114.65 2162.84,-114.65"/>
<polygon fill="black" stroke="black" points="2159.34,-114.65 2162.84,-124.65 2166.34,-114.65 2159.34,-114.65"/>
</g>
<!-- ShowOneProviderComponent -->
<g id="node33" class="node">
<title>ShowOneProviderComponent</title>
<polygon fill="#ffffb3" stroke="black" points="2040.25,-84.8 1855.75,-84.8 1855.75,-48.8 2040.25,-48.8 2040.25,-84.8"/>
<text text-anchor="middle" x="1948" y="-62.6" font-family="Times,serif" font-size="14.00">ShowOneProviderComponent</text>
</g>
<!-- ShowOneProviderComponent&#45;&gt;AppProviderModule -->
<g id="edge34" class="edge">
<title>ShowOneProviderComponent&#45;&gt;AppProviderModule</title>
<path fill="none" stroke="black" d="M1971.28,-84.85C1971.28,-99.17 1971.28,-116.8 1971.28,-116.8 1971.28,-116.8 2137.92,-116.8 2137.92,-116.8 2137.92,-116.8 2137.92,-117.59 2137.92,-117.59"/>
<polygon fill="black" stroke="black" points="2134.42,-114.74 2137.92,-124.74 2141.42,-114.74 2134.42,-114.74"/>
</g>
<!-- AppProviderRoutingModule -->
<g id="node34" class="node">
<title>AppProviderRoutingModule</title>
<polygon fill="#8dd3c7" stroke="black" points="1832.48,-84.8 1829.48,-88.8 1808.48,-88.8 1805.48,-84.8 1655.52,-84.8 1655.52,-48.8 1832.48,-48.8 1832.48,-84.8"/>
<text text-anchor="middle" x="1744" y="-62.6" font-family="Times,serif" font-size="14.00">AppProviderRoutingModule</text>
</g>
<!-- AppProviderRoutingModule&#45;&gt;AppProviderModule -->
<g id="edge35" class="edge">
<title>AppProviderRoutingModule&#45;&gt;AppProviderModule</title>
<path fill="none" stroke="black" d="M1744,-85.08C1744,-100.75 1744,-120.8 1744,-120.8 1744,-120.8 2112.99,-120.8 2112.99,-120.8 2112.99,-120.8 2112.99,-121.18 2112.99,-121.18"/>
<polygon fill="black" stroke="black" points="2109.49,-114.63 2112.99,-124.63 2116.49,-114.63 2109.49,-114.63"/>
</g>
</g>
</svg>
